<svg xmlns="http://www.w3.org/2000/svg" viewBox="0 0 128 128">
  <!-- Swords behind shield -->
  <line x1="6" y1="2" x2="122" y2="126" stroke="#1a1a1a" stroke-width="8" stroke-linecap="round"/>
  <line x1="8" y1="4" x2="120" y2="124" stroke="#d4a832" stroke-width="3.5"/>
  <line x1="122" y1="2" x2="6" y2="126" stroke="#1a1a1a" stroke-width="8" stroke-linecap="round"/>
  <line x1="120" y1="4" x2="8" y2="124" stroke="#d4a832" stroke-width="3.5"/>
  <!-- Pommel dots -->
  <circle cx="6" cy="126" r="5" fill="#d4a832"/>
  <circle cx="122" cy="126" r="5" fill="#d4a832"/>
  <!-- Shield -->
  <defs>
    <clipPath id="s">
      <path d="M64 14 L104 30 L104 70 Q104 104 64 118 Q24 104 24 70 L24 30 Z"/>
    </clipPath>
  </defs>
  <path d="M64 12 L106 28 L106 72 Q106 106 64 120 Q22 106 22 72 L22 28 Z" fill="#5a0f20" stroke="#3a0a14" stroke-width="2"/>
  <g clip-path="url(#s)">
    <rect x="22" y="12" width="84" height="108" fill="#c41e3a"/>
    <rect x="36" y="12" width="12" height="108" fill="#1e4fa0"/>
    <rect x="58" y="12" width="12" height="108" fill="#1e4fa0"/>
    <rect x="80" y="12" width="12" height="108" fill="#1e4fa0"/>
  </g>
  <!-- Gold banner -->
  <rect x="26" y="57" width="76" height="18" rx="1" fill="#c4973a"/>
  <text x="64" y="70.5" text-anchor="middle" fill="#fff" font-family="Arial,Helvetica,sans-serif" font-weight="700" font-size="12" letter-spacing="2">COMMUNE</text>
</svg>
